<svg width="414" height="386" viewBox="0 0 414 386" fill="none" xmlns="http://www.w3.org/2000/svg">
<path d="M36.849 120.964C84.2903 46.8368 177.483 9.61408 263.009 6.24937C270.388 11.7068 276.803 19.3871 282.033 26.4689C288.267 34.9114 295.475 41.9554 302.513 49.6795C311.908 59.9915 318.695 72.3003 327.663 82.9503C352.349 112.265 372.524 144.765 389.39 179.385C400.798 202.801 403.367 227.708 407.858 252.969C410.712 269.019 412.158 284.493 411.595 300.827C409.723 355.126 348.971 375.878 303.375 381.022C255.765 386.394 207.762 383.709 160.591 375.417C123.358 368.873 84.54 356.912 53.8078 334.17C16.3286 306.436 0.136051 268.373 2.57218 222.357C4.4966 186.007 17.2963 151.515 36.849 120.964Z" fill="black"/>
<path d="M269.386 6.06091C182.154 7.78259 85.472 44.9904 36.849 120.964C17.2963 151.515 4.4966 186.007 2.57218 222.357C0.136051 268.373 16.3286 306.436 53.8078 334.17C84.54 356.912 123.358 368.873 160.591 375.417C207.762 383.709 255.765 386.394 303.375 381.022C348.971 375.878 409.723 355.126 411.595 300.827C412.158 284.493 410.712 269.019 407.858 252.969C403.367 227.708 400.798 202.801 389.39 179.385C372.524 144.765 352.349 112.265 327.663 82.9503C318.695 72.3003 311.908 59.9915 302.513 49.6795C295.475 41.9554 288.267 34.9114 282.033 26.4689C275.308 17.3629 266.625 7.26752 256.451 2.18051" stroke="black" stroke-width="3" stroke-linecap="round"/>
<path d="M166.106 81.6142C155.33 80.2672 144.759 80.8951 134.237 83.974C121.735 87.6322 109.29 93.9863 100.129 103.412C95.323 108.357 90.0835 115.705 93.123 122.874C94.8696 126.993 98.5014 129.734 101.808 132.532C103.142 133.661 107.369 136.354 107.574 138.444C107.762 140.368 101.016 142.811 99.9348 143.333C96.5205 144.984 93.0147 146.388 89.4739 147.737" stroke="white" stroke-width="3" stroke-linecap="round"/>
<path d="M163.917 114.894C163.917 123.761 159.35 131.434 155.159 138.979" stroke="white" stroke-width="3" stroke-linecap="round"/>
<path d="M165.23 114.019C168.016 112.879 171.389 113.115 174.329 113.143C177.31 113.171 183.609 112.97 185.276 116.305C187.526 120.804 178.789 122.732 176.275 123.36C166.906 125.703 157.66 125.941 148.152 124.966" stroke="white" stroke-width="3" stroke-linecap="round"/>
<path d="M207.268 124.09C204.361 125.497 201.42 128.729 200.627 131.9C199.483 136.476 205.118 136.076 207.633 134.235C210.486 132.147 212.71 127.452 209.069 124.917C207.427 123.775 203.547 122.775 202.452 124.966" stroke="white" stroke-width="3" stroke-linecap="round"/>
<path d="M225.222 126.718C225.077 129.632 224.19 132.241 222.692 134.746C221.291 137.09 221.193 137.321 221.306 134.503C221.523 129.071 224.619 116.772 232.058 120.976C235.128 122.712 237.471 125.376 238.505 128.761C239.13 130.807 237.877 130.042 236.462 129.442C234.32 128.535 233.755 128.771 232.91 131.267C231.92 134.19 231.791 137.238 231.791 140.293" stroke="white" stroke-width="3" stroke-linecap="round"/>
<path d="M247.555 122.339C253.273 121.767 258.868 120.529 264.633 120.247C265.548 120.202 268.491 119.713 269.158 120.879C270.031 122.407 268.552 125.188 267.796 126.377C265.14 130.554 261.302 134.287 257.967 137.908C254.237 141.959 250.292 145.848 245.949 149.245C245.684 149.453 241.925 152.807 241.181 151.629C240.726 150.908 240.986 149.426 240.986 148.613" stroke="white" stroke-width="3" stroke-linecap="round"/>
<path d="M248.431 135.476C258.319 137.303 267.601 140.436 277.332 142.92" stroke="white" stroke-width="3" stroke-linecap="round"/>
<path d="M300.103 125.404C295.338 129.573 308.034 138.032 309.809 140.852C312.125 144.53 298.36 149.083 295.724 149.488" stroke="white" stroke-width="3" stroke-linecap="round"/>
<path d="M232.666 129.345C227.154 129.896 221.602 129.783 216.026 129.783" stroke="white" stroke-width="3" stroke-linecap="round"/>
<path d="M70.6443 199.409C76.6271 197.369 81.6075 192.742 86.8952 189.434C91.9639 186.263 97.2313 183.486 102.805 181.309C105.535 180.243 112.694 176.855 115.869 178.56C117.948 179.676 117.363 184.278 117.159 185.883C116.34 192.308 113.839 198.292 110.663 203.885C103.964 215.683 94.9662 225.861 84.2191 234.003" stroke="white" stroke-width="3" stroke-linecap="round"/>
<path d="M86.4087 207.291C92.94 207.291 99.0023 209.5 105.287 211.037C117.88 214.117 130.437 215.173 143.335 215.173" stroke="white" stroke-width="3" stroke-linecap="round"/>
<path d="M144.649 202.036C155.728 206.904 169.798 207.562 181.53 205.101C187.658 203.816 195.665 201.291 199.727 196.1C203.158 191.715 197.872 188.992 194.131 188.291C180.281 185.694 162.434 196.08 167.079 212.205C170.626 224.519 187.823 224.208 197.635 222.617" stroke="white" stroke-width="3" stroke-linecap="round"/>
<path d="M241.862 185.834C237.915 186.821 234.184 190.416 231.377 193.108C225.264 198.97 220.181 206.655 221.573 215.514C223.395 227.106 235.78 232.689 246.241 232.689" stroke="white" stroke-width="3" stroke-linecap="round"/>
<path d="M293.972 174.011C293.972 182.512 293.632 190.978 292.999 199.457C292.59 204.939 292.064 210.408 291.856 215.903C291.809 217.121 291.246 220.874 291.807 222.277C291.91 222.533 293.067 219.995 293.096 219.893C293.966 216.898 294.626 213.969 296.064 211.159C298.079 207.224 300.947 203.384 304.968 201.331C308.537 199.509 311.328 203.941 313.386 206.22C319.943 213.486 326.346 220.887 332.751 228.286C333.151 228.748 335.449 232.183 336.01 230.499" stroke="white" stroke-width="3" stroke-linecap="round"/>
<path d="M191.066 274.289C188.984 277.784 186.215 280.776 183.281 283.582C174.379 292.101 164.388 299.553 154.478 306.84C145.851 313.183 136.999 319.917 127.182 324.356C124.707 325.475 122.331 326.069 119.689 326.399" stroke="white" stroke-width="3" stroke-linecap="round"/>
<path d="M130.636 265.093C139.316 271.375 147.951 277.837 156.18 284.701C160.459 288.27 164.338 292.151 166.982 297.06" stroke="white" stroke-width="3" stroke-linecap="round"/>
<path d="M205.517 297.06C201.713 300.03 197.542 303.352 195.932 308.105C194.523 312.262 195.752 315.42 200.165 316.23C213.384 318.658 212.961 300.822 212.961 292.511C212.961 290.929 212.961 289.348 212.961 287.767C212.961 286.315 212.962 290.672 212.888 292.121C212.533 299.095 210.485 306.043 215.296 312.021C222.305 320.729 237.427 324.895 247.555 319.831" stroke="white" stroke-width="3" stroke-linecap="round"/>
<path d="M308.861 283.485C306.481 294.722 298.325 304.355 291.394 313.141C285.933 320.061 280.752 328.06 273.391 332.968" stroke="white" stroke-width="3" stroke-linecap="round"/>
<path d="M272.515 286.55C274.58 287.583 276.38 289.627 278.11 291.075C282.999 295.165 288.129 298.867 293.388 302.461C297.509 305.276 301.872 309.035 306.671 310.635" stroke="white" stroke-width="3" stroke-linecap="round"/>
</svg>
